<svg version="1.1" xmlns="http://www.w3.org/2000/svg" width="64" height="64" viewBox="0 0 64 64">
  <defs>
    <linearGradient id="pgBlue" x1="0%" y1="0%" x2="0%" y2="100%">
      <stop offset="0%" stop-color="#336791" />
      <stop offset="100%" stop-color="#244a69" />
    </linearGradient>
    <linearGradient id="qfGreen" x1="0%" y1="0%" x2="100%" y2="100%">
      <stop offset="0%" stop-color="#91d65e" />
      <stop offset="100%" stop-color="#589632" />
    </linearGradient>
  </defs>

  <g stroke="#FFFFFF" stroke-width="1.5" stroke-linejoin="round">
    <path d="M 0 22 A 32 8 0 0 0 64 22 L 64 36 A 32 8 0 0 1 0 36 Z" fill="url(#pgBlue)" />
    <path d="M 0 8 A 32 8 0 0 0 64 8 L 64 22 A 32 8 0 0 1 0 22 Z" fill="url(#pgBlue)" />
    <ellipse cx="32" cy="8" rx="32" ry="8" fill="#4d88b5" />
  </g>

  <path d="M 14 62 
           A 12 12 0 0 1 8 42 
           A 16 16 0 0 1 34 28 
           A 14 14 0 0 1 56 40 
           A 12 12 0 0 1 50 62 Z" 
        fill="url(#qfGreen)" 
        stroke="#FFFFFF" 
        stroke-width="2" 
        stroke-linejoin="round" />

  <path d="M 28 36 L 28 46 L 22 46 L 32 58 L 42 46 L 36 46 L 36 36 Z" 
        fill="#FFFFFF" 
        stroke="#234212" 
        stroke-width="1" 
        stroke-linejoin="round" />
</svg>
